<mxfile host="app.diagrams.net" modified="2024-03-10T07:12:12.802Z" agent="Mozilla/5.0 (Windows NT 10.0; Win64; x64) AppleWebKit/537.36 (KHTML, like Gecko) Chrome/122.0.0.0 Safari/537.36" etag="dAOJL9wSR7myL9bcVDgQ" version="23.1.7" type="github">
  <diagram name="第 1 页" id="ms9--4vIe1txsoRL8aFu">
    <mxGraphModel dx="2261" dy="738" grid="1" gridSize="10" guides="1" tooltips="1" connect="1" arrows="1" fold="1" page="1" pageScale="1" pageWidth="827" pageHeight="1169" math="0" shadow="0">
      <root>
        <mxCell id="0" />
        <mxCell id="1" parent="0" />
        <mxCell id="uTqP-Y-jselss-Khx-P8-10" value="" style="rounded=0;whiteSpace=wrap;html=1;fontSize=14;" vertex="1" parent="1">
          <mxGeometry x="140" y="10" width="630" height="770" as="geometry" />
        </mxCell>
        <mxCell id="uTqP-Y-jselss-Khx-P8-3" value="&lt;font style=&quot;font-size: 14px;&quot;&gt;&lt;br style=&quot;font-size: 14px;&quot;&gt;策&lt;br style=&quot;font-size: 14px;&quot;&gt;略&lt;br style=&quot;font-size: 14px;&quot;&gt;数&lt;br style=&quot;font-size: 14px;&quot;&gt;据&lt;br style=&quot;font-size: 14px;&quot;&gt;层&lt;/font&gt;" style="text;html=1;align=center;verticalAlign=middle;resizable=0;points=[];autosize=1;strokeColor=none;fillColor=none;rotation=0;fontSize=14;" vertex="1" parent="1">
          <mxGeometry x="140" y="640" width="40" height="110" as="geometry" />
        </mxCell>
        <mxCell id="uTqP-Y-jselss-Khx-P8-4" value="&lt;span style=&quot;font-size: 19px;&quot;&gt;零&lt;br&gt;信&lt;br&gt;任&lt;br&gt;访&lt;br&gt;问&lt;br&gt;代&lt;br&gt;理&lt;/span&gt;" style="text;html=1;align=center;verticalAlign=middle;resizable=0;points=[];autosize=1;strokeColor=none;fillColor=none;" vertex="1" parent="1">
          <mxGeometry x="90" y="480" width="40" height="170" as="geometry" />
        </mxCell>
        <mxCell id="uTqP-Y-jselss-Khx-P8-8" value="&lt;font style=&quot;font-size: 19px;&quot;&gt;零&lt;br&gt;信&lt;br&gt;任&lt;br&gt;终&lt;br&gt;端&lt;/font&gt;" style="text;html=1;align=center;verticalAlign=middle;resizable=0;points=[];autosize=1;strokeColor=none;fillColor=none;" vertex="1" parent="1">
          <mxGeometry x="90" y="100" width="40" height="130" as="geometry" />
        </mxCell>
        <mxCell id="uTqP-Y-jselss-Khx-P8-21" value="" style="endArrow=none;html=1;rounded=0;exitX=0.004;exitY=0.388;exitDx=0;exitDy=0;exitPerimeter=0;entryX=1.001;entryY=0.385;entryDx=0;entryDy=0;entryPerimeter=0;fontSize=14;" edge="1" parent="1" source="uTqP-Y-jselss-Khx-P8-10" target="uTqP-Y-jselss-Khx-P8-10">
          <mxGeometry width="50" height="50" relative="1" as="geometry">
            <mxPoint x="170" y="310" as="sourcePoint" />
            <mxPoint x="750" y="310" as="targetPoint" />
          </mxGeometry>
        </mxCell>
        <mxCell id="uTqP-Y-jselss-Khx-P8-23" value="" style="rounded=0;whiteSpace=wrap;html=1;fillColor=#6d8764;strokeColor=#3A5431;fontColor=#ffffff;dashed=1;dashPattern=12 12;fontSize=14;" vertex="1" parent="1">
          <mxGeometry x="180" y="40" width="570" height="170" as="geometry" />
        </mxCell>
        <mxCell id="uTqP-Y-jselss-Khx-P8-28" value="&lt;font style=&quot;font-size: 20px;&quot;&gt;服务层&lt;/font&gt;" style="text;html=1;align=center;verticalAlign=middle;resizable=0;points=[];autosize=1;strokeColor=none;fillColor=none;" vertex="1" parent="1">
          <mxGeometry x="-200" y="390" width="80" height="40" as="geometry" />
        </mxCell>
        <mxCell id="uTqP-Y-jselss-Khx-P8-29" value="" style="rounded=0;whiteSpace=wrap;html=1;fillColor=#6d8764;strokeColor=#3A5431;fontColor=#ffffff;dashed=1;dashPattern=8 8;fontSize=14;" vertex="1" parent="1">
          <mxGeometry x="180" y="340" width="570" height="290" as="geometry" />
        </mxCell>
        <mxCell id="uTqP-Y-jselss-Khx-P8-30" value="" style="rounded=0;whiteSpace=wrap;html=1;fillColor=#6d8764;strokeColor=#3A5431;fontColor=#ffffff;dashed=1;dashPattern=8 8;fontSize=14;" vertex="1" parent="1">
          <mxGeometry x="180" y="650" width="570" height="100" as="geometry" />
        </mxCell>
        <mxCell id="uTqP-Y-jselss-Khx-P8-34" value="&lt;font style=&quot;font-size: 14px;&quot;&gt;服&lt;br style=&quot;font-size: 14px;&quot;&gt;务&lt;br style=&quot;font-size: 14px;&quot;&gt;决&lt;br style=&quot;font-size: 14px;&quot;&gt;策&lt;br style=&quot;font-size: 14px;&quot;&gt;层&lt;/font&gt;" style="text;html=1;align=center;verticalAlign=middle;resizable=0;points=[];autosize=1;strokeColor=none;fillColor=none;fontSize=14;" vertex="1" parent="1">
          <mxGeometry x="140" y="435" width="40" height="100" as="geometry" />
        </mxCell>
        <mxCell id="uTqP-Y-jselss-Khx-P8-35" value="&lt;font style=&quot;font-size: 14px;&quot;&gt;采&lt;br style=&quot;font-size: 14px;&quot;&gt;集&lt;br style=&quot;font-size: 14px;&quot;&gt;层&lt;/font&gt;" style="text;html=1;align=center;verticalAlign=middle;resizable=0;points=[];autosize=1;strokeColor=none;fillColor=none;fontSize=14;" vertex="1" parent="1">
          <mxGeometry x="140" y="95" width="40" height="60" as="geometry" />
        </mxCell>
        <mxCell id="uTqP-Y-jselss-Khx-P8-37" value="&lt;font style=&quot;font-size: 16px;&quot;&gt;监&lt;br&gt;控&lt;br&gt;层&lt;/font&gt;" style="text;html=1;align=center;verticalAlign=middle;resizable=0;points=[];autosize=1;strokeColor=none;fillColor=none;" vertex="1" parent="1">
          <mxGeometry x="-170" y="40" width="40" height="70" as="geometry" />
        </mxCell>
        <mxCell id="uTqP-Y-jselss-Khx-P8-38" value="" style="rounded=0;whiteSpace=wrap;html=1;fillColor=#cce5ff;strokeColor=#36393d;fontSize=14;" vertex="1" parent="1">
          <mxGeometry x="210" y="60" width="100" height="130" as="geometry" />
        </mxCell>
        <mxCell id="uTqP-Y-jselss-Khx-P8-39" value="" style="rounded=0;whiteSpace=wrap;html=1;fillColor=#cce5ff;strokeColor=#36393d;fontSize=14;" vertex="1" parent="1">
          <mxGeometry x="350" y="60" width="100" height="130" as="geometry" />
        </mxCell>
        <mxCell id="uTqP-Y-jselss-Khx-P8-40" value="" style="rounded=0;whiteSpace=wrap;html=1;fillColor=#cce5ff;strokeColor=#36393d;fontSize=14;" vertex="1" parent="1">
          <mxGeometry x="490" y="60" width="100" height="130" as="geometry" />
        </mxCell>
        <mxCell id="uTqP-Y-jselss-Khx-P8-41" value="" style="rounded=0;whiteSpace=wrap;html=1;fillColor=#cce5ff;strokeColor=#36393d;fontSize=14;" vertex="1" parent="1">
          <mxGeometry x="630" y="60" width="100" height="130" as="geometry" />
        </mxCell>
        <mxCell id="uTqP-Y-jselss-Khx-P8-43" value="" style="rounded=0;whiteSpace=wrap;html=1;fillColor=#6d8764;strokeColor=#3A5431;fontColor=#ffffff;dashed=1;dashPattern=12 12;" vertex="1" parent="1">
          <mxGeometry x="-530" y="150" width="570" height="100" as="geometry" />
        </mxCell>
        <mxCell id="uTqP-Y-jselss-Khx-P8-44" value="" style="rounded=0;whiteSpace=wrap;html=1;fillColor=#cce5ff;strokeColor=#36393d;fontSize=14;" vertex="1" parent="1">
          <mxGeometry x="200" y="365" width="530" height="60" as="geometry" />
        </mxCell>
        <mxCell id="uTqP-Y-jselss-Khx-P8-45" value="" style="rounded=0;whiteSpace=wrap;html=1;fillColor=#cce5ff;strokeColor=#36393d;fontSize=14;" vertex="1" parent="1">
          <mxGeometry x="200" y="460" width="100" height="80" as="geometry" />
        </mxCell>
        <mxCell id="uTqP-Y-jselss-Khx-P8-48" value="" style="rounded=0;whiteSpace=wrap;html=1;fillColor=#cce5ff;strokeColor=#36393d;fontSize=14;" vertex="1" parent="1">
          <mxGeometry x="200" y="560" width="530" height="60" as="geometry" />
        </mxCell>
        <mxCell id="uTqP-Y-jselss-Khx-P8-20" value="" style="sketch=0;shadow=0;dashed=0;html=1;strokeColor=#36393d;fillColor=#000000;labelPosition=center;verticalLabelPosition=bottom;verticalAlign=top;outlineConnect=0;align=center;shape=mxgraph.office.databases.database_availability_group;fontSize=14;" vertex="1" parent="1">
          <mxGeometry x="210" y="670.5" width="59" height="59" as="geometry" />
        </mxCell>
        <mxCell id="uTqP-Y-jselss-Khx-P8-50" value="" style="rounded=0;whiteSpace=wrap;html=1;fillColor=#cce5ff;strokeColor=#36393d;fontSize=14;" vertex="1" parent="1">
          <mxGeometry x="340" y="460" width="100" height="80" as="geometry" />
        </mxCell>
        <mxCell id="uTqP-Y-jselss-Khx-P8-51" value="" style="rounded=0;whiteSpace=wrap;html=1;fillColor=#cce5ff;strokeColor=#36393d;fontSize=14;" vertex="1" parent="1">
          <mxGeometry x="490" y="460" width="100" height="80" as="geometry" />
        </mxCell>
        <mxCell id="uTqP-Y-jselss-Khx-P8-52" value="" style="rounded=0;whiteSpace=wrap;html=1;fillColor=#cce5ff;strokeColor=#36393d;fontSize=14;" vertex="1" parent="1">
          <mxGeometry x="630" y="460" width="100" height="80" as="geometry" />
        </mxCell>
        <mxCell id="uTqP-Y-jselss-Khx-P8-53" value="&lt;span style=&quot;font-size: 14px;&quot;&gt;安&lt;br style=&quot;font-size: 14px;&quot;&gt;全&lt;br style=&quot;font-size: 14px;&quot;&gt;基&lt;br style=&quot;font-size: 14px;&quot;&gt;线&lt;/span&gt;" style="text;html=1;align=center;verticalAlign=middle;resizable=0;points=[];autosize=1;strokeColor=none;fillColor=none;fontSize=14;" vertex="1" parent="1">
          <mxGeometry x="180" y="85" width="40" height="80" as="geometry" />
        </mxCell>
        <mxCell id="uTqP-Y-jselss-Khx-P8-54" value="安全配置" style="rounded=0;whiteSpace=wrap;html=1;" vertex="1" parent="1">
          <mxGeometry x="220" y="65" width="80" height="35" as="geometry" />
        </mxCell>
        <mxCell id="uTqP-Y-jselss-Khx-P8-55" value="安全漏洞" style="rounded=0;whiteSpace=wrap;html=1;" vertex="1" parent="1">
          <mxGeometry x="220" y="107.5" width="80" height="35" as="geometry" />
        </mxCell>
        <mxCell id="uTqP-Y-jselss-Khx-P8-56" value="系统状态" style="rounded=0;whiteSpace=wrap;html=1;" vertex="1" parent="1">
          <mxGeometry x="220" y="150" width="80" height="35" as="geometry" />
        </mxCell>
        <mxCell id="uTqP-Y-jselss-Khx-P8-58" value="进&lt;br&gt;程&lt;br&gt;监&lt;br&gt;控" style="text;html=1;align=center;verticalAlign=middle;resizable=0;points=[];autosize=1;strokeColor=none;fillColor=none;fontSize=14;" vertex="1" parent="1">
          <mxGeometry x="320" y="85" width="40" height="80" as="geometry" />
        </mxCell>
        <mxCell id="uTqP-Y-jselss-Khx-P8-59" value="文&lt;br&gt;件&lt;br&gt;监&lt;br&gt;控" style="text;html=1;align=center;verticalAlign=middle;resizable=0;points=[];autosize=1;strokeColor=none;fillColor=none;fontSize=14;" vertex="1" parent="1">
          <mxGeometry x="460" y="85" width="40" height="80" as="geometry" />
        </mxCell>
        <mxCell id="uTqP-Y-jselss-Khx-P8-60" value="可&lt;br&gt;信&lt;br&gt;接&lt;br&gt;入&lt;br&gt;历&lt;br&gt;史" style="text;html=1;align=center;verticalAlign=middle;resizable=0;points=[];autosize=1;strokeColor=none;fillColor=none;fontSize=14;" vertex="1" parent="1">
          <mxGeometry x="600" y="72.5" width="40" height="110" as="geometry" />
        </mxCell>
        <mxCell id="uTqP-Y-jselss-Khx-P8-61" value="捕获进程启动" style="rounded=0;whiteSpace=wrap;html=1;" vertex="1" parent="1">
          <mxGeometry x="360" y="75" width="80" height="35" as="geometry" />
        </mxCell>
        <mxCell id="uTqP-Y-jselss-Khx-P8-62" value="捕获进程启动" style="rounded=0;whiteSpace=wrap;html=1;" vertex="1" parent="1">
          <mxGeometry x="360" y="142.5" width="80" height="35" as="geometry" />
        </mxCell>
      </root>
    </mxGraphModel>
  </diagram>
</mxfile>
